<svg width="20" height="21" viewBox="0 0 20 21" fill="none" xmlns="http://www.w3.org/2000/svg">
<g id="wallet-add.12 1">
<path id="Vector" d="M4.16634 12.9999C2.32467 12.9999 0.833008 14.4916 0.833008 16.3332C0.833008 16.9582 1.00801 17.5499 1.31634 18.0499C1.89134 19.0166 2.94967 19.6666 4.16634 19.6666C5.38301 19.6666 6.44134 19.0166 7.01634 18.0499C7.32467 17.5499 7.49967 16.9582 7.49967 16.3332C7.49967 14.4916 6.00801 12.9999 4.16634 12.9999ZM5.40801 16.9416H4.79134V17.5916C4.79134 17.9332 4.50801 18.2166 4.16634 18.2166C3.82467 18.2166 3.54134 17.9332 3.54134 17.5916V16.9416H2.92467C2.58301 16.9416 2.29967 16.6582 2.29967 16.3166C2.29967 15.9749 2.58301 15.6916 2.92467 15.6916H3.54134V15.0999C3.54134 14.7582 3.82467 14.4749 4.16634 14.4749C4.50801 14.4749 4.79134 14.7582 4.79134 15.0999V15.6916H5.40801C5.74967 15.6916 6.03301 15.9749 6.03301 16.3166C6.03301 16.6582 5.75801 16.9416 5.40801 16.9416ZM17.9163 10.9166H15.833C14.9163 10.9166 14.1663 11.6666 14.1663 12.5832C14.1663 13.4999 14.9163 14.2499 15.833 14.2499H17.9163C18.1497 14.2499 18.333 14.0666 18.333 13.8332V11.3332C18.333 11.0999 18.1497 10.9166 17.9163 10.9166ZM13.774 5.00005C14.024 5.24172 13.8157 5.61672 13.4657 5.61672L6.5657 5.60838C6.1657 5.60838 5.9657 5.12505 6.24903 4.84172L7.70737 3.37505C8.94067 2.15005 10.9323 2.15005 12.1657 3.37505L13.7407 4.96672C13.749 4.97505 13.7657 4.99172 13.774 5.00005Z" fill="#363A3F"/>
<path id="Vector_2" d="M18.2245 16.0499C17.7162 17.7666 16.2495 18.8333 14.2495 18.8333H8.83283C8.50783 18.8333 8.29948 18.4749 8.43283 18.1749C8.68283 17.5916 8.84116 16.9333 8.84116 16.3333C8.84116 13.8083 6.78281 11.7499 4.25781 11.7499C3.62448 11.7499 3.00781 11.8833 2.44115 12.1333C2.13281 12.2666 1.75781 12.0583 1.75781 11.7249V10.4999C1.75781 8.23325 3.12448 6.64992 5.24948 6.38325C5.45781 6.34992 5.6828 6.33325 5.91614 6.33325H14.2495C14.4662 6.33325 14.6745 6.34159 14.8745 6.37492C16.5578 6.56659 17.7745 7.59159 18.2245 9.11659C18.3078 9.39159 18.1078 9.66659 17.8245 9.66659H15.9162C14.1078 9.66659 12.6745 11.3166 13.0662 13.1916C13.3412 14.5583 14.6078 15.4999 15.9995 15.4999H17.8245C18.1162 15.4999 18.3078 15.7833 18.2245 16.0499Z" fill="#363A3F"/>
</g>
</svg>
