<svg width="20" height="20" viewBox="0 0 20 20" fill="none" xmlns="http://www.w3.org/2000/svg">
<path d="M13.4917 1.66669H6.50834C3.475 1.66669 1.66667 3.47502 1.66667 6.50835V13.4834C1.66667 16.525 3.475 18.3334 6.50834 18.3334H13.4833C16.5167 18.3334 18.325 16.525 18.325 13.4917V6.50835C18.3333 3.47502 16.525 1.66669 13.4917 1.66669ZM14.3833 8.30002L12.4583 10.7834C12.2167 11.0917 11.875 11.2917 11.4833 11.3334C11.0917 11.3834 10.7083 11.275 10.4 11.0334L8.875 9.83335C8.81667 9.78335 8.75 9.78335 8.71667 9.79169C8.68334 9.79169 8.625 9.80835 8.57501 9.87502L6.59167 12.45C6.46667 12.6084 6.28334 12.6917 6.10001 12.6917C5.96667 12.6917 5.83334 12.65 5.71667 12.5584C5.44167 12.35 5.39167 11.9584 5.6 11.6834L7.58334 9.10835C7.82501 8.80002 8.16667 8.60002 8.55834 8.55002C8.94167 8.50002 9.33334 8.60835 9.64167 8.85002L11.1667 10.05C11.225 10.1 11.2833 10.1 11.325 10.0917C11.3583 10.0917 11.4167 10.075 11.4667 10.0084L13.3917 7.52502C13.6 7.25002 14 7.20002 14.2667 7.41669C14.5417 7.64169 14.5917 8.03335 14.3833 8.30002Z" fill="#292D32"/>
</svg>
